<svg width="24" height="24" viewBox="0 0 24 24" fill="none" xmlns="http://www.w3.org/2000/svg">
<path d="M7.5 22.5H5.69824V18.2998H1.5V16.5H7.5V22.5ZM22.5 18.2998H18.2998V22.5H16.5V16.5H22.5V18.2998ZM15.25 8.25C15.5261 8.25 15.75 8.47386 15.75 8.75V15.25C15.75 15.5261 15.5261 15.75 15.25 15.75H8.75C8.47386 15.75 8.25 15.5261 8.25 15.25V8.75C8.25 8.47386 8.47386 8.25 8.75 8.25H15.25ZM10.0498 13.9502H13.9502V10.0498H10.0498V13.9502ZM7.5 7.5H1.5V5.7002H5.7002V1.5H7.5V7.5ZM18.2998 5.7002H22.5V7.5H16.5V1.5H18.2998V5.7002Z" fill="black" fill-opacity="0.45"/>
</svg>
