<svg width="24" height="24" viewBox="0 0 24 24" fill="none" xmlns="http://www.w3.org/2000/svg">
<path d="M3.30762 20.7002H7.5V22.5H1.5V16.5H3.30762V20.7002ZM22.5 22.5H16.5V20.7002H20.7002V16.5H22.5V22.5ZM16 7.5C16.2761 7.5 16.5 7.72386 16.5 8V16C16.5 16.2761 16.2761 16.5 16 16.5H8C7.72386 16.5 7.5 16.2761 7.5 16V8C7.5 7.72386 7.72386 7.5 8 7.5H16ZM9.2998 14.7002H14.7002V9.2998H9.2998V14.7002ZM7.5 3.2998H3.2998V7.5H1.5V1.5H7.5V3.2998ZM22.5 7.5H20.7002V3.2998H16.5V1.5H22.5V7.5Z" fill="black" fill-opacity="0.45"/>
</svg>
