<?xml version="1.0" standalone="no"?><!DOCTYPE svg PUBLIC "-//W3C//DTD SVG 1.1//EN" "http://www.w3.org/Graphics/SVG/1.1/DTD/svg11.dtd"><svg t="1561270214571" class="icon" viewBox="0 0 1024 1024" version="1.1" xmlns="http://www.w3.org/2000/svg" p-id="14250" xmlns:xlink="http://www.w3.org/1999/xlink" width="128" height="128"><defs><style type="text/css"></style></defs><path d="M697.158047 947.930487c-11.778254 0-21.309328-9.531074-21.309328-21.309328L675.848719 729.8404c0-11.778254 9.531074-21.309328 21.309328-21.309328l185.189769 0c11.778254 0 21.309328 9.531074 21.309328 21.309328 0 11.778254-9.531074 21.309328-21.309328 21.309328L718.467375 751.149728l0 175.47143C718.467375 938.399413 708.936301 947.930487 697.158047 947.930487z" p-id="14251" fill="#409eff"></path><path d="M470.203058 728.445634c-1.477654 0-2.975774-0.145309-4.495384-0.478907-11.508102-2.455935-18.832927-13.797237-16.356526-25.305339l83.615373-390.273634c2.476401-11.487635 13.672394-18.937305 25.305339-16.356526 11.508102 2.455935 18.832927 13.797237 16.356526 25.305339L491.013013 711.6102C488.869187 721.599715 480.024751 728.445634 470.203058 728.445634z" p-id="14252" fill="#409eff"></path><path d="M642.281205 665.204287c-4.827959 0-9.697873-1.644453-13.69286-4.994758-9.011234-7.574512-10.175757-21.018709-2.601244-30.02892L737.612411 497.411747l-120.407324-100.970646c-9.011234-7.574512-10.197246-21.018709-2.6432-30.02892 7.574512-9.011234 20.99722-10.175757 30.02892-2.6432l136.743384 114.684996c4.328585 3.641947 7.054673 8.844435 7.53358 14.483876 0.499373 5.63944-1.269923 11.237949-4.910846 15.565511L658.617265 657.608286C654.393058 662.623509 648.358621 665.204287 642.281205 665.204287z" p-id="14253" fill="#409eff"></path><path d="M395.2029 666.432255c-4.807493 0-9.635451-1.622964-13.630439-4.932336l-138.88721-115.76663c-4.349051-3.641947-7.075139-8.864902-7.574512-14.525831s1.290389-11.278881 4.952802-15.607466l127.295198-150.4782c7.616468-9.011234 21.039175-10.134825 30.02892-2.518357 8.989745 7.596002 10.113335 21.059642 2.518357 30.02892L286.470477 526.733563l122.404818 102.011348c9.031701 7.554046 10.259668 20.976754 2.726088 30.02892C407.377174 663.831011 401.321248 666.432255 395.2029 666.432255z" p-id="14254" fill="#409eff"></path><path d="M680.031994 959.50101l-465.201138 0c-58.57507 0-106.058524-47.484478-106.058524-106.058524L108.772332 170.557514c0-58.57507 47.484478-106.058524 106.058524-106.058524l594.337263 0c58.57507 0 106.058524 47.484478 106.058524 106.058524l0 550.749536c0 27.298739-10.525728 53.547567-29.386284 73.28305l-23.179932 24.255427c-19.748786 20.705578-19.748786 20.705578-42.36897 43.576471-12.393261 12.494569-31.589462 31.875988-64.640206 65.383126C735.721341 948.011328 708.413392 959.50101 680.031994 959.50101zM236.141208 916.88133l434.977789 0c22.670326 0 44.491307-9.18008 60.415998-25.315572 29.308513-29.697369 46.88175-47.439452 58.458413-59.131749 22.350031-22.557762 22.350031-22.557762 41.828664-42.99421l17.323551-18.137079c15.059997-15.767102 23.464411-36.732599 23.464411-58.537208L872.610034 191.866842c0-46.806026-37.943171-84.749196-84.749196-84.749196L236.141208 107.117646c-46.806026 0-84.749196 37.943171-84.749196 84.749196l0 640.265292C151.390989 878.93816 189.335183 916.88133 236.141208 916.88133z" p-id="14255" fill="#409eff"></path></svg>
