<?xml version="1.0" standalone="no"?>
<!DOCTYPE svg PUBLIC "-//W3C//DTD SVG 1.1//EN" "http://www.w3.org/Graphics/SVG/1.1/DTD/svg11.dtd" >
<!--
2013-9-30: Created.
-->
<svg>
<metadata>
Created by iconfont
</metadata>
<defs>

<font id="iconfont" horiz-adv-x="1024" >
  <font-face
    font-family="iconfont"
    font-weight="500"
    font-stretch="normal"
    units-per-em="1024"
    ascent="896"
    descent="-128"
  />
    <missing-glyph />
    
    <glyph glyph-name="close" unicode="&#58950;" d="M554.48 382.83000000000004l248.7 247.41c11.76 11.7 11.82 30.66 0.12 42.42-11.73 11.79-30.66 11.82-42.42 0.12l-248.76-247.44-246.6 247.35C253.85 684.39 234.86 684.45 223.1 672.75 211.37 661.05 211.34 642.06 223.04 630.3l246.54-247.29L221 135.75c-11.76-11.7-11.82-30.66-0.12-42.42 5.85-5.88 13.56-8.85 21.27-8.85 7.65 0 15.3 2.91 21.15 8.73l248.64 247.32 248.85-249.6c5.85-5.88 13.53-8.82 21.24-8.82 7.68 0 15.33 2.94 21.18 8.76 11.73 11.7 11.76 30.66 0.06 42.42L554.48 382.83000000000004z"  horiz-adv-x="1024" />

    
    <glyph glyph-name="refresh" unicode="&#58882;" d="M896 480L640 480C622.32 480 608 494.32 608 512 608 529.6800000000001 622.32 544 640 544L825.344 544C767.056 657.904 648.736 736 512 736 317.6 736 160 578.4 160 384 160 189.60000000000002 317.6 32 512 32 684.512 32 827.872 156.15999999999997 858 319.952 858 319.96799999999996 858 319.98400000000004 858 320 858 337.67999999999995 872.32 352 890 352 907.68 352 922 337.67999999999995 922 320 922 316.51199999999994 921.296 313.216 920.272 310.06399999999996L921.392 309.79200000000003C886.416 115.45600000000002 716.432-32 512-32 282.24-32 96 154.25599999999997 96 384 96 613.744 282.24 800 512 800 660.256 800 790.32 722.4 864 605.664L864 768C864 785.6800000000001 878.32 800 896 800 913.68 800 928 785.6800000000001 928 768L928 512C928 494.32 913.68 480 896 480Z"  horiz-adv-x="1024" />

    
    <glyph glyph-name="info-circle" unicode="&#59215;" d="M557 189C557 164.15999999999997 537.02 144 512 144l0 0c-24.84 0-45 20.16-45 45l0 210C467 423.9 487.16 444 512 444l0 0c24.96 0 45-20.1 45-45L557 189zM512 624C487.16 624 467 603.9 467 579S487.16 534 512 534c24.96 0 45 20.1 45 45S537.02 624 512 624zM512 804C280.1 804 92 615.96 92 384c0-231.9 188.1-420 420-420 232.02 0 420 188.1 420 420C932 615.96 744.02 804 512 804zM512 23.279999999999973C312.8 23.279999999999973 151.28 184.79999999999995 151.28 384S312.8 744.72 512 744.72c199.2 0 360.54-161.46 360.54-360.72S711.2 23.279999999999973 512 23.279999999999973z"  horiz-adv-x="1024" />

    
    <glyph glyph-name="check-circle-solid" unicode="&#58930;" d="M512 805.875C278.21093777 805.875 90.125 617.78906223 90.125 384c0-233.78906223 188.08593777-421.875 421.875-421.875 233.78906223 0 421.875 188.08593777 421.875 421.875C933.875 617.78906223 745.78906223 805.875 512 805.875zM775.671875 489.46875L496.1796875 209.9765625C476.84374973 190.64062473 441.68750027 190.64062473 422.3515625 209.9765625L248.328125 384c0 0-26.3671875 26.3671875 0 52.734375s52.734375 0 52.734375 0l158.203125-158.203125 263.671875 263.671875c0 0 26.3671875 26.3671875 52.734375 0S775.671875 489.46875 775.671875 489.46875z"  horiz-adv-x="1024" />

    
    <glyph glyph-name="question-circle" unicode="&#58987;" d="M511.37882094 804.40808344c-231.88246406 0-419.85741656-187.97687156-419.85741656-419.85741656 0-231.880545 187.97687156-419.85741656 419.85741656-419.85741657 231.87958594 0 419.8564575 187.97687156 419.8564575 419.85741656C931.2362375 616.43121188 743.25936594 804.40808344 511.37882094 804.40808344zM511.37882094 24.997963130000016c-198.57576563 0-359.55174375 160.97789719-359.55174375 359.55270281 0 198.57576563 160.97501906 359.55174375 359.55174375 359.55174375 198.57384656 0 359.55174375-160.97597812 359.55174375-359.55174375C870.93056469 185.97586031000003 709.95266844 24.997963130000016 511.37882094 24.997963130000016zM502.59021969 610.38634969c-61.79842031-2.02710562-126.63510094-32.41834031-147.9086775-126.63318281 50.6526975-7.09247156 74.9674125-10.13169094 74.9674125-10.13169094s13.17091031 81.04681031 94.21580156 71.92819312c81.04585125-9.11861719 62.81149406-69.90300562 54.70498969-82.05988312-8.10362531-20.26242188-83.07103781-68.88993281-95.22887438-98.26809469-12.1568775-29.37912094-11.14380469-84.08602969-11.14380469-84.08602969l72.942225 0c0 0-4.05325219 57.74612812 36.47063251 82.05988313 40.52292562 24.313755 109.41189844 95.22983437 79.02066375 163.10573437C612.00211812 604.30791094 564.38768094 612.41249625 502.59021969 610.38634969zM471.18495219 253.78364624999995l75.98048531 0 0-83.06144437-75.98048531 0 0 83.06144437Z"  horiz-adv-x="1024" />

    
    <glyph glyph-name="warning-circle-solid" unicode="&#59013;" d="M512-37.875C279.00634766-37.875 90.125 151.00634765999996 90.125 384 90.125 616.9936523399999 279.00634766 805.875 512 805.875 744.99365234 805.875 933.875 616.9936523399999 933.875 384 933.875 151.00634765999996 744.99365234-37.875 512-37.875ZM551.55078125 608.12109375C551.55078125 629.9663085899999 533.84521484 647.671875 512 647.671875 490.15478516 647.671875 472.44921875 629.9663085899999 472.44921875 608.12109375L472.44921875 318.08203125C472.44921875 296.23681640999996 490.15478516 278.53124999 512 278.53124999 533.84521484 278.53124999 551.55078125 296.23681640999996 551.55078125 318.08203125L551.55078125 608.12109375ZM512 199.4296875C490.15478516 199.4296875 472.44921875 181.72412109000004 472.44921875 159.87890625 472.44921875 138.03369140999996 490.15478516 120.328125 512 120.328125 533.84521484 120.328125 551.55078125 138.03369140999996 551.55078125 159.87890625 551.55078125 181.72412109000004 533.84521484 199.4296875 512 199.4296875Z"  horiz-adv-x="1024" />

    
    <glyph glyph-name="flag-solid" unicode="&#59277;" d="M816 790.4c-9.6 6.4-22.4 6.4-32 0 0 0-57.6-28.8-144-28.8-41.6 0-80 16-118.4 28.8C480 809.6 438.4 828.8 384 828.8c-102.4 0-172.8-35.2-172.8-35.2C198.4 787.2 192 774.4 192 764.8l0-800c0-19.2 12.8-32 32-32s32 12.8 32 32L256 358.4c22.4 9.6 67.2 22.4 128 22.4 41.6 0 76.8-16 115.2-28.8 41.6-16 86.4-35.2 140.8-35.2 102.4 0 172.8 35.2 172.8 35.2 9.6 6.4 19.2 16 19.2 28.8l0 384C832 774.4 825.6 784 816 790.4z"  horiz-adv-x="1024" />

    
    <glyph glyph-name="delete" unicode="&#58943;" d="M608 128c-17.696 0-32 14.304-32 32L576 512c0 17.696 14.304 32 32 32s32-14.304 32-32l0-352C640 142.304 625.696 128 608 128zM416 128c-17.696 0-32 14.304-32 32L384 512c0 17.696 14.304 32 32 32s32-14.304 32-32l0-352C448 142.304 433.696 128 416 128zM928 672l-160 0L768 736c0 52.928-42.72 96-95.264 96L352 832C299.072 832 256 788.928 256 736l0-64L96 672C78.304 672 64 657.696 64 640s14.304-32 32-32l832 0c17.696 0 32 14.304 32 32S945.696 672 928 672zM320 736c0 17.632 14.368 32 32 32l320.736 0C690.272 768 704 753.952 704 736l0-64L320 672 320 736zM736.128-64 288.064-64c-52.928 0-96 43.072-96 96L192.064 512.48c0 17.664 14.336 32 32 32s32-14.336 32-32L256.064 32c0-17.664 14.368-32 32-32l448.064 0c17.664 0 32 14.336 32 32L768.128 511.168c0 17.664 14.304 32 32 32s32-14.336 32-32L832.128 32C832.128-20.928 789.056-64 736.128-64z"  horiz-adv-x="1024" />

    
    <glyph glyph-name="search" unicode="&#58901;" d="M142.90432 416.4096c0 185.14432 150.07232 335.21664 335.21664 335.21664 185.14944 0 335.22176-150.07744 335.22176-335.21664 0-185.14432-150.07232-335.22176-335.22176-335.22176C292.97664 81.18784000000005 142.90432 231.26527999999996 142.90432 416.4096L142.90432 416.4096zM725.38112 110.26944000000003l177.83808-177.79712 51.53792 51.55328-177.13152 177.1776c58.60864 68.70016 94.00832 157.81376 94.00832 255.20128 0 217.33376-176.1792 393.51296-393.51808 393.51296-217.33888 0-393.51296-176.1792-393.51296-393.51296 0-217.33888 176.1792-393.5232 393.51296-393.5232C571.79136 22.88639999999998 657.81248 55.61856 725.38112 110.26944000000003L725.38112 110.26944000000003z"  horiz-adv-x="1024" />

    
    <glyph glyph-name="down-solid" unicode="&#59113;" d="M163.446154 620.307692h697.107692c19.692308 0 33.476923-25.6 17.723077-43.323077L537.6 159.50769200000002c-11.815385-15.753846-37.415385-15.753846-49.230769 0L143.753846 576.9846150000001c-13.784615 17.723077-1.969231 43.323077 19.692308 43.323077z"  horiz-adv-x="1024" />

    
    <glyph glyph-name="right" unicode="&#58899;" d="M290.3-49c17.5-17.5 45.8-17.5 63.3 0l370.2 370.2c35 35 35 91.7 0 126.6l-372.9 373c-17.3 17.3-45.3 17.5-62.8 0.5-17.9-17.4-18.1-46.1-0.5-63.8l341.3-341.3c17.5-17.5 17.5-45.8 0-63.3L290.3 14.299999999999955c-17.5-17.5-17.5-45.8 0-63.3z"  horiz-adv-x="1024" />

    
    <glyph glyph-name="question-circle-solid" unicode="&#58993;" d="M512 814.592a422.4 422.4 0 1 1 422.4-422.4A422.4 422.4 0 0 1 512 814.592z m26.624-629.76a45.056 45.056 0 0 0-31.232-12.288 42.496 42.496 0 0 0-31.232 12.8 41.984 41.984 0 0 0-12.8 30.72 39.424 39.424 0 0 0 12.8 30.72 42.496 42.496 0 0 0 31.232 12.288 43.008 43.008 0 0 0 31.744-12.288 39.424 39.424 0 0 0 12.8-30.72 43.008 43.008 0 0 0-13.312-31.744z m87.04 235.52a617.472 617.472 0 0 0-51.2-47.104 93.184 93.184 0 0 1-25.088-31.232 80.896 80.896 0 0 1-9.728-39.936v-10.24H475.648v10.24a119.808 119.808 0 0 0 12.288 57.344A311.296 311.296 0 0 0 555.52 435.2l10.24 11.264a71.168 71.168 0 0 1 16.896 44.032A69.632 69.632 0 0 1 563.2 537.6a69.632 69.632 0 0 1-51.2 17.92 67.072 67.072 0 0 1-58.88-26.112 102.4 102.4 0 0 1-16.384-61.44h-61.44a140.288 140.288 0 0 0 37.888 102.4 140.8 140.8 0 0 0 104.96 38.4 135.68 135.68 0 0 0 96.256-29.184 108.032 108.032 0 0 0 36.352-86.528 116.736 116.736 0 0 0-25.088-73.216z"  horiz-adv-x="1024" />

    
    <glyph glyph-name="close-circle-solid" unicode="&#59152;" d="M512.84375-37.875C279.8489375-37.875 90.96875 151.00518750000003 90.96875 384S279.8489375 805.875 512.84375 805.875s421.875-188.8801875 421.875-421.875-188.8801875-421.875-421.875-421.875z m0 485.79834375l-138.5015625 138.5015625-63.92334375-63.92334375L448.92040625 384l-138.5015625-138.5015625 63.92334375-63.92334375L512.84375 320.07665625000004l138.5015625-138.5015625 63.92334375 63.92334375L576.76709375 384l138.5015625 138.5015625-63.92334375 63.92334375L512.84375 447.92334375z"  horiz-adv-x="1025" />

    
    <glyph glyph-name="edit" unicode="&#58923;" d="M533.333333 789.333333v-85.333333H213.333333v-618.666667h618.666667V405.333333h85.333333v-405.333333H128V789.333333h405.333333z m355.114667-97.237333L501.504 305.173333l-64.426667 64.426667L824.021333 756.501333l64.426667-64.426666z"  horiz-adv-x="1024" />

    
    <glyph glyph-name="last-solid" unicode="&#59245;" d="M824.87733714 752.68245406c29.49459633 0 53.62653878-24.13194244 53.62653879-53.62653876v-630.1118306c0-29.49459633-24.13194244-53.62653878-53.62653879-53.62653876s-53.62653878 24.13194244-53.62653876 53.62653876V699.0559153c0 29.49459633 24.13194244 53.62653878 53.62653876 53.62653876zM679.08018487 421.70616007L218.05953437 744.4708903000001c-14.07696642 9.88739309-32.51108913 11.06047362-47.76113612 3.18407576-15.25004697-8.04398081-24.80227418-23.62919365-24.80227418-40.89023582v-645.6970434c0-17.26104215 9.55222721-33.01383793 24.80227418-40.89023582 15.25004697-7.70881495 33.68416965-6.70331735 47.76113612 3.18407573l461.18823342 322.76473024c12.23355417 8.71431257 19.60720323 22.79127899 19.60720325 37.87374301 0 15.08246403-7.37364908 29.15943044-19.77478617 37.70616007z"  horiz-adv-x="1024" />

    
    <glyph glyph-name="first-solid" unicode="&#59246;" d="M252.74920162 699.0559153v-630.1118306c0-29.49459633-24.13194244-53.62653878-53.62653876-53.62653876s-53.62653878 24.13194244-53.62653879 53.62653876V699.0559153c0 29.49459633 24.13194244 53.62653878 53.62653879 53.62653876s53.62653878-24.13194244 53.62653876-53.62653876zM325.14502896 384c0-15.08246403 7.37364908-29.15943044 19.60720325-37.87374301l461.18823342-322.76473024c14.07696642-9.88739309 32.51108913-10.89289068 47.76113612-3.18407573 15.25004697 7.87639788 24.80227418 23.62919365 24.80227418 40.89023582V706.7647302400001c0 17.26104215-9.55222721 32.84625501-24.80227418 40.89023582-15.25004697 7.87639788-33.68416965 6.70331735-47.76113612-3.18407576L344.91981513 421.70616007a45.7333826 45.7333826 0 0 1-19.77478617-37.70616007z"  horiz-adv-x="1024" />

    
    <glyph glyph-name="swap" unicode="&#58932;" d="M936.67214222 423.14296889H79.64444445c-20.10794667 0-36.40888889 16.30094222-36.4088889 36.40888889s16.30094222 36.40888889 36.4088889 36.40888889h857.02769777c20.10794667 0 36.40888889-16.30094222 36.40888889-36.40888889s-16.30094222-36.40888889-36.40888889-36.40888889zM945.90976 423.37621333c-9.31726222 0-18.63566222 3.55441778-25.74449778 10.66439112L737.22766222 616.97706667c-14.21880889 14.21880889-14.21880889 37.27132445 0 51.49013333 14.21767111 14.21880889 37.27132445 14.21880889 51.48899556 0l182.9376-182.9376c14.21880889-14.21880889 14.21880889-37.27132445 0-51.49013333-7.10883555-7.10883555-16.42609778-10.66325333-25.74449778-10.66325334zM945.90976 272.94492445000003H88.88206222c-20.10794667 0-36.40888889 16.30094222-36.40888889 36.40888888s16.30094222 36.40888889 36.40888889 36.40888889h857.02883556c20.10794667 0 36.40888889-16.30094222 36.40888889-36.40888889s-16.30208-36.40888889-36.41002667-36.40888888zM262.58090667 89.77408000000003c-9.31726222 0-18.63566222 3.55441778-25.74449778 10.66439111L53.89994667 283.37607111c-14.21880889 14.21767111-14.21880889 37.27132445 0 51.48899556 14.21880889 14.21994667 37.27132445 14.21994667 51.49013333 0L288.32654222 151.92746666999994c14.21880889-14.21767111 14.21880889-37.27132445 0-51.48899556-7.10997333-7.10997333-16.42723555-10.66439111-25.74563555-10.66439111z"  horiz-adv-x="1024" />

    
    <glyph glyph-name="shop" unicode="&#58904;" d="M829.22 771.575l-7.074 10.657H211.681l-7.142-9.141C48.983 574.5 70.507 453.584 97.154 399.14c26.74-54.537 80.878-89.832 137.978-89.832h5.146c72.044 2.867 119.954 38.642 145.19 64.548 22.794-25.906 65.7-60.542 132.857-60.542 70.023 0 113.703 37.702 135.58 63.878 30.546-24.907 90.183-65.722 152.687-65.722 40.98 0 76.086 16.8 104.681 49.908 106.091 123.54-74.324 398.555-82.053 410.197z m45.422-379.179c-19.224-22.498-41.5-33.237-68.145-33.237-60.246 0-122.822 54.56-136.78 67.52V590.245c0.024 0.459 0.26 0.8 0.26 1.246 0 13.253-10.715 23.968-23.921 23.968-13.228 0-23.92-10.715-23.92-23.968h-0.259v-177.852c-13.064-17.812-46.173-52.635-103.552-52.635-64.785 0-98.526 44.293-107.667 58.368v172.12c0 13.253-10.715 23.968-23.898 23.968-13.228 0-23.943-10.715-23.943-23.968v-171.25c-11.725-15.25-52.071-60.39-124.466-63.373h-3.22v0.047c-31.933 0-73.688 19.585-95 63.232-21.358 43.54-36.843 141.95 94.954 314.398h561.097c49.814-78.719 144.298-265.771 78.46-342.15z m-43.354-110.228c-13.277 0-24.086-10.761-24.132-24.038V84.425c0-26.694-21.642-48.312-48.263-48.312H264.08c-26.623 0-48.265 21.618-48.265 48.312V258.06c-0.024 13.323-10.808 24.108-24.11 24.108-13.3 0-24.084-10.785-24.13-24.108v-178.453c0-50.73 41.025-91.805 91.664-91.805h504.492c50.637 0 91.662 41.075 91.662 91.805V258.13c-0.068 13.278-10.831 24.038-24.106 24.038z"  horiz-adv-x="1024" />

    
    <glyph glyph-name="left-solid" unicode="&#59139;" d="M748.307692 732.553846v-697.107692c0-19.692308-25.6-33.476923-43.323077-17.723077L287.507692 358.4c-15.753846 11.815385-15.753846 37.415385 0 49.230769L704.984615 752.2461539999999c17.723077 13.784615 43.323077 1.969231 43.323077-19.692308z"  horiz-adv-x="1024" />

    
    <glyph glyph-name="right-solid" unicode="&#59181;" d="M275.692308 35.44615399999998V732.553846c0 19.692308 25.6 33.476923 43.323077 17.723077l417.476923-340.676923c15.753846-11.815385 15.753846-37.415385 0-49.230769L319.015385 15.753845999999953c-17.723077-13.784615-43.323077-1.969231-43.323077 19.692308z"  horiz-adv-x="1024" />

    
    <glyph glyph-name="up-solid" unicode="&#59213;" d="M860.553846 147.69230800000003H163.446154c-19.692308 0-33.476923 25.6-17.723077 43.323077l340.676923 417.476923c11.815385 15.753846 37.415385 15.753846 49.230769 0l344.615385-417.476923c13.784615-17.723077 1.969231-43.323077-19.692308-43.323077z"  horiz-adv-x="1024" />

    
    <glyph glyph-name="down" unicode="&#59278;" d="M79.00000001 605.7c-17.5-17.5-17.5-45.8 0-63.3l370.19999999-370.2c35-35 91.7-35 126.6-1e-8l373 372.90000001c17.3 17.3 17.5 45.3 0.5 62.8-17.4 17.9-46.1 18.1-63.8 0.5l-341.30000001-341.3c-17.5-17.5-45.8-17.5-63.29999999-1e-8L142.3 605.6999999899999c-17.5 17.5-45.8 17.5-63.29999999 1e-8z"  horiz-adv-x="1024" />

    
    <glyph glyph-name="up" unicode="&#59279;" d="M944.99999999 162.29999999999995c17.5 17.5 17.5 45.8 0 63.3l-370.19999999 370.2c-35 35-91.7 35-126.6 1e-8l-373-372.90000001c-17.3-17.3-17.5-45.3-0.5-62.8 17.4-17.9 46.1-18.1 63.8-0.5l341.30000001 341.3c17.5 17.5 45.8 17.5 63.29999999 1e-8L881.7 162.30000000999996c17.5-17.5 45.8-17.5 63.29999999-1e-8z"  horiz-adv-x="1024" />

    
    <glyph glyph-name="left" unicode="&#59280;" d="M733.7 816.99999999c-17.5 17.5-45.8 17.5-63.3 0l-370.2-370.19999999c-35-35-35-91.7-1e-8-126.6l372.90000001-373c17.3-17.3 45.3-17.5 62.8-0.5 17.9 17.4 18.1 46.1 0.5 63.8l-341.3 341.30000001c-17.5 17.5-17.5 45.8-1e-8 63.29999999L733.69999999 753.7c17.5 17.5 17.5 45.8 1e-8 63.29999999z"  horiz-adv-x="1024" />

    


  </font>
</defs>
</svg>
